<svg width="120" height="122" viewBox="0 0 120 122" fill="none" xmlns="http://www.w3.org/2000/svg">
<path fill-rule="evenodd" clip-rule="evenodd" d="M40.6736 19.3372C38.4877 19.9513 36.922 21.5067 36.3614 23.6211C35.7444 25.9485 37.142 28.8405 39.6539 30.4343C41.2184 31.4269 41.9177 31.5214 43.8631 31.0037C44.996 30.7021 46.3729 29.8637 47.0517 29.0624C47.215 28.8692 47.5984 28.1989 47.9036 27.5725C48.8848 25.5579 48.5584 23.2815 46.9936 21.2302C45.7208 19.5615 42.8919 18.7142 40.6736 19.3372ZM76.3134 19.2745C72.4304 20.0269 70.1759 24.4461 71.955 27.819C73.105 29.9999 74.9438 31.0971 77.4541 31.1007C79.2854 31.1035 80.1951 30.7652 81.4811 29.6031C82.635 28.5608 83.2527 27.4067 83.5671 25.7066C83.763 24.647 83.7365 24.2505 83.4117 23.3815C82.3159 20.4483 79.2904 18.6978 76.3134 19.2745ZM0 62.0801C0 62.5186 0.0469214 62.6978 0.104092 62.4787C0.161491 62.2596 0.161491 61.9006 0.104092 61.6815C0.0469214 61.4624 0 61.6416 0 62.0801ZM27.166 88.9573C27.3926 89.2078 27.6295 89.4128 27.6922 89.4128C27.7548 89.4128 27.6204 89.2078 27.3938 88.9573C27.1671 88.7067 26.9303 88.5017 26.8676 88.5017C26.805 88.5017 26.9394 88.7067 27.166 88.9573ZM76.9343 91.8937C75.0261 92.3062 73.1629 93.8095 72.4522 95.5105C72.2734 95.9385 72.1242 96.9018 72.1206 97.6509C72.1083 100.227 73.6742 102.366 76.4357 103.543C77.5705 104.027 77.7438 104.041 79.2383 103.774C81.1481 103.432 82.3986 102.58 83.4211 100.923C84.0133 99.963 84.1028 99.6125 84.0634 98.4071C83.924 94.1291 80.6081 91.0997 76.9343 91.8937ZM57.8584 113.486C58.0775 113.543 58.4365 113.543 58.6556 113.486C58.8747 113.429 58.6954 113.382 58.257 113.382C57.8185 113.382 57.6393 113.429 57.8584 113.486Z" fill="#4DCCA6"/>
<path fill-rule="evenodd" clip-rule="evenodd" d="M56.4738 0.0978301C38.3144 1.11529 21.9476 10.4774 11.0808 26.0637C3.37662 37.1139 -0.164566 49.4792 0.25613 63.8617C0.44427 70.2935 1.19091 74.6062 3.1329 80.4775C6.78592 91.5229 13.8384 101.753 22.7118 108.877C32.3404 116.607 42.6952 120.8 54.4884 121.744C58.3407 122.052 65.3818 121.872 68.7442 121.379C74.7699 120.495 81.2157 118.456 86.7141 115.693C93.3992 112.334 100.439 106.863 105.15 101.367C110.043 95.6585 113.356 90.2059 115.97 83.564C119.258 75.2077 120.592 65.6176 119.755 56.3452C118.734 45.0162 115.658 35.8994 109.978 27.365C103.537 17.688 95.8674 10.8715 85.9412 6.00147C76.8032 1.51822 66.8206 -0.481852 56.4738 0.0978301ZM66.0471 8.86344C71.1233 9.49619 77.1301 11.21 81.7291 13.3374C89.3576 16.8665 97.5615 23.9841 102.375 31.2503C107.845 39.5057 110.716 48.252 111.291 58.4129C111.934 69.7491 109.103 80.6629 103.204 89.6C96.952 99.0701 88.1085 106.268 77.8672 110.221C67.6762 114.154 55.1571 114.532 44.8588 111.216C36.8054 108.623 30.6629 104.882 24.5964 98.8738C20.0038 94.3256 16.9211 90.1309 14.1817 84.7029C8.49398 73.4329 7.1918 60.5177 10.4439 47.6317C14.5411 31.3965 26.9752 17.3881 42.4367 11.5881C45.4007 10.4761 50.0755 9.30418 52.8003 8.99008C53.9904 8.85273 55.2717 8.70468 55.6475 8.66072C57.5774 8.43591 63.551 8.55207 66.0471 8.86344ZM57.8113 14.648C54.8628 15.5481 52.9374 18.0404 52.9609 20.9265C52.9753 22.697 53.4256 23.7265 54.8396 25.2216L55.9891 26.437V30.5326V34.628L54.2105 34.9001C45.5458 36.2267 37.1772 42.7294 33.823 50.7422C32.8998 52.9479 32.201 55.5036 31.9646 57.541L31.8124 58.8507H30.5711C29.4329 58.8507 29.2448 58.7725 28.3098 57.9107L27.2898 56.9704V50.4768V43.9833L33.8383 37.4059L40.3867 30.8287L39.3198 30.167C37.9905 29.3429 36.9533 27.936 36.4838 26.3209L36.1233 25.0806L34.8186 26.4202C34.1011 27.157 30.5761 30.7437 26.9853 34.3906L20.4566 41.0218V48.6795V56.3374L19.3747 56.8912C17.13 58.0396 15.7041 60.2239 15.6123 62.6543C15.5064 65.4616 16.7911 67.7386 19.0818 68.8046L20.4518 69.4421L20.4769 75.3642C20.4908 78.6214 20.5687 81.5136 20.6502 81.7913C20.7315 82.0691 25.5949 87.117 31.4578 93.0091L42.1171 103.722L59.4738 103.72L76.8303 103.717L75.6915 103.178C73.5969 102.186 72.1102 99.9571 72.0678 97.7442L72.0471 96.6637L58.4889 96.6623L44.9308 96.661L36.1103 87.8357L27.2898 79.0104V73.7315V68.4527L28.2419 67.6377C28.7655 67.1894 29.3293 66.8148 29.4946 66.8052C29.66 66.7956 30.2053 66.7877 30.7064 66.7877C31.2075 66.7877 31.7024 66.7956 31.8065 66.8052C31.9104 66.8148 32.1769 67.6682 32.3985 68.7019C33.1777 72.3351 34.994 76.0357 37.5705 79.2382C43.9322 87.1464 54.8198 91.0669 64.7584 89.0283C74.4132 87.0478 82.3759 80.0659 85.519 70.8252C85.8183 69.9446 86.1269 68.6839 86.2046 68.0235L86.3456 66.8227H88.5971H90.8486L91.8683 67.7627L92.8883 68.703L92.8847 73.9696L92.881 79.2363L86.5444 85.6076L80.2078 91.9791L81.1658 92.6134C82.6991 93.6291 83.9596 95.7818 84.0027 97.4582L84.0204 98.1415L84.4899 97.572C84.7479 97.2589 87.5377 94.3851 90.6889 91.186C93.8404 87.9867 97.1108 84.6398 97.9563 83.7485L99.4937 82.1277V75.7327V69.3376L100.348 68.8996C100.818 68.6588 101.585 68.0775 102.052 67.6081C105.278 64.3694 104.395 59.2951 100.217 57.0684C98.6138 56.2138 96.693 55.935 95.166 56.3356C94.6023 56.4834 93.4505 57.0586 92.6063 57.6136L91.0716 58.6229H88.8258H86.5797L86.305 56.6593C85.5483 51.2504 83.0697 46.535 78.8113 42.403C76.2286 39.897 73.5481 38.0498 70.7629 36.8563C68.5483 35.9071 65.7226 35.0566 64.0181 34.8259L62.8223 34.6639V30.4711V26.278L63.7498 25.4401C65.5864 23.7807 66.2426 21.1741 65.4356 18.7442C64.9021 17.138 63.1485 15.35 61.5839 14.8167C60.4207 14.4204 58.7951 14.3478 57.8113 14.648ZM83.5521 25.8236C83.5337 27.3474 81.5539 29.9939 79.9155 30.685L79.2905 30.9485L84.2692 36.0734C89.036 40.9803 89.2405 41.2274 89.0752 41.8816C88.7367 43.2198 88.9137 45.6968 89.418 46.6792C91.472 50.6807 96.75 51.5572 99.8891 48.4182C103.092 45.2155 101.705 39.9697 97.2235 38.3356C95.8911 37.8498 95.5157 37.5111 89.6902 31.5391C84.6375 26.3596 83.5578 25.3544 83.5521 25.8236ZM64.5306 42.6508C69.9291 44.0584 74.6886 47.9766 77.1533 53.0425C78.3011 55.4015 78.6794 56.7308 79.0085 59.5616C79.6481 65.0634 78.1888 70.138 74.7383 74.4103C72.256 77.4839 68.0452 80.1572 64.0956 81.1672C61.4302 81.8489 57.2291 81.8122 54.351 81.082C47.0021 79.2179 41.2491 73.3402 39.6856 66.0993C39.1485 63.6107 39.1932 59.6488 39.7865 57.1877C41.5723 49.7801 47.4133 44.0552 54.8503 42.4239C57.4259 41.8588 61.8953 41.9636 64.5306 42.6508ZM56.1345 48.9619C52.3771 49.8716 49.1733 52.4273 47.4185 55.9151C46.4689 57.8029 46.1179 59.4518 46.1371 61.9365C46.1626 65.2787 47.3547 68.2962 49.6352 70.7912C52.0735 73.4591 54.8881 74.7656 58.6085 74.9567C60.3234 75.0446 61.2521 74.9781 62.3668 74.687C70.3682 72.5977 74.661 63.5054 71.0969 56.1962C68.3171 50.4955 62.1392 47.5085 56.1345 48.9619ZM61.5461 56.4345C62.6904 56.9128 63.9913 58.1774 64.4837 59.2907C65.3727 61.3004 64.8978 64.2933 63.4375 65.882C62.567 66.8293 60.8222 67.5013 59.2276 67.5038C57.5041 67.5065 56.5836 67.1523 55.2953 65.9907C53.9943 64.8176 53.4937 63.6562 53.4937 61.8117C53.4937 60.0073 53.9975 58.7924 55.276 57.5139C56.8114 55.9785 59.3916 55.5343 61.5461 56.4345Z" fill="#111827"/>
</svg>
